<?xml version="1.0" encoding="UTF-8"?>
<!DOCTYPE svg PUBLIC "-//W3C//DTD SVG 1.1//EN" "http://www.w3.org/Graphics/SVG/1.1/DTD/svg11.dtd">
<svg version="1.1" xmlns="http://www.w3.org/2000/svg" xmlns:xlink="http://www.w3.org/1999/xlink" x="0" y="0" width="132.6" height="19.2" viewBox="0, 0, 132.6, 19.2">
  <g id="Layer_1-2">
    <path d="M60.6,0 L61,0 L61,19.2 L60.6,19.2 z" fill="#FFFFFF"/>
    <path d="M12.207,13.983 C11.996,13.983 11.794,13.936 11.615,13.858 C11.428,13.774 11.219,13.726 11.004,13.726 C10.785,13.726 10.577,13.774 10.393,13.858 C10.213,13.936 10.009,13.983 9.801,13.983 C9.59,13.983 9.386,13.936 9.206,13.858 C9.022,13.774 8.813,13.726 8.595,13.726 C8.38,13.726 8.171,13.774 7.987,13.858 C7.807,13.936 7.604,13.983 7.393,13.983 C7.182,13.983 6.981,13.936 6.801,13.858 C6.616,13.774 6.408,13.726 6.19,13.726 C5.974,13.726 5.766,13.774 5.579,13.858 C5.399,13.936 5.198,13.983 4.988,13.983 C4.777,13.983 4.576,13.936 4.396,13.858 C4.212,13.774 4.003,13.726 3.785,13.726 C3.569,13.726 3.361,13.774 3.174,13.858 C2.994,13.936 2.793,13.983 2.582,13.983 L2.582,13.125 C2.793,13.125 2.994,13.079 3.174,13 C3.361,12.919 3.569,12.87 3.785,12.87 C4.003,12.87 4.212,12.919 4.396,13 C4.576,13.079 4.777,13.125 4.988,13.125 C5.198,13.125 5.399,13.079 5.579,13 C5.766,12.919 5.974,12.87 6.19,12.87 C6.408,12.87 6.616,12.919 6.801,13 C6.981,13.079 7.182,13.125 7.393,13.125 C7.604,13.125 7.807,13.079 7.987,13 C8.171,12.919 8.38,12.87 8.595,12.87 C8.813,12.87 9.022,12.919 9.206,13 C9.386,13.079 9.59,13.125 9.801,13.125 C10.009,13.125 10.213,13.079 10.393,13 C10.577,12.919 10.785,12.87 11.004,12.87 C11.219,12.87 11.428,12.919 11.615,13 C11.794,13.079 11.996,13.125 12.207,13.125 L12.207,13.983 z" fill="#F8F6F3"/>
    <path d="M8.32,12.212 C8.411,12.193 8.502,12.184 8.595,12.184 C8.813,12.184 9.022,12.233 9.206,12.314 C9.386,12.392 9.59,12.438 9.801,12.438 C10.009,12.438 10.213,12.392 10.393,12.314 C10.52,12.258 10.656,12.214 10.802,12.196 C10.723,9.895 8.236,7.843 8.119,7.736 C7.996,7.63 7.884,7.397 7.963,7.121 L8.557,5.226 C8.663,4.932 8.61,4.539 8.464,4.421 C8.38,4.357 8.202,4.31 8.083,4.442 L6.475,6.201 C6.123,6.562 6.418,6.948 6.411,6.946 C5.864,6.756 5.222,6.883 4.833,7.038 L3.505,7.688 C3.373,7.741 3.316,7.903 3.385,8.012 C3.606,8.351 4.336,8.354 5.859,8.194 C8.32,7.94 8.322,11.743 8.32,12.212 z" fill="#F8F6F3"/>
    <text transform="matrix(1, 0, 0, 1, 19, -4.5)"/>
    <path d="M23.5,14.764 Q21.415,14.764 20.161,13.39 Q18.907,12.016 18.907,9.815 Q18.907,7.45 20.185,6.041 Q21.463,4.633 23.664,4.633 Q25.695,4.633 26.935,6 Q28.176,7.368 28.176,9.576 Q28.176,11.975 26.905,13.37 Q25.633,14.764 23.5,14.764 z M23.582,5.672 Q22.037,5.672 21.074,6.787 Q20.11,7.901 20.11,9.712 Q20.11,11.524 21.05,12.628 Q21.99,13.732 23.5,13.732 Q25.114,13.732 26.043,12.679 Q26.973,11.626 26.973,9.733 Q26.973,7.791 26.071,6.732 Q25.168,5.672 23.582,5.672 z" fill="#FFFFFF"/>
    <path d="M32.412,5.221 Q32.084,5.037 31.667,5.037 Q30.492,5.037 30.492,6.52 L30.492,7.6 L32.132,7.6 L32.132,8.557 L30.492,8.557 L30.492,14.6 L29.377,14.6 L29.377,8.557 L28.181,8.557 L28.181,7.6 L29.377,7.6 L29.377,6.465 Q29.377,5.365 30.013,4.725 Q30.649,4.086 31.599,4.086 Q32.112,4.086 32.412,4.209 z" fill="#FFFFFF"/>
    <path d="M35.794,5.221 Q35.466,5.037 35.049,5.037 Q33.873,5.037 33.873,6.52 L33.873,7.6 L35.514,7.6 L35.514,8.557 L33.873,8.557 L33.873,14.6 L32.759,14.6 L32.759,8.557 L31.563,8.557 L31.563,7.6 L32.759,7.6 L32.759,6.465 Q32.759,5.365 33.395,4.725 Q34.031,4.086 34.981,4.086 Q35.494,4.086 35.794,4.209 z" fill="#FFFFFF"/>
    <path d="M43.196,13.93 Q41.719,14.764 39.914,14.764 Q37.816,14.764 36.52,13.411 Q35.225,12.057 35.225,9.829 Q35.225,7.552 36.664,6.093 Q38.103,4.633 40.311,4.633 Q41.911,4.633 42.997,5.153 L42.997,6.424 Q41.808,5.672 40.181,5.672 Q38.534,5.672 37.481,6.807 Q36.428,7.942 36.428,9.746 Q36.428,11.606 37.406,12.669 Q38.383,13.732 40.058,13.732 Q41.206,13.732 42.047,13.274 L42.047,10.526 L39.901,10.526 L39.901,9.487 L43.196,9.487 z" fill="#FFFFFF"/>
    <path d="M47.972,8.735 Q47.678,8.509 47.124,8.509 Q46.407,8.509 45.925,9.186 Q45.443,9.863 45.443,11.032 L45.443,14.6 L44.322,14.6 L44.322,7.6 L45.443,7.6 L45.443,9.042 L45.47,9.042 Q45.709,8.304 46.202,7.891 Q46.694,7.477 47.302,7.477 Q47.74,7.477 47.972,7.573 z" fill="#FFFFFF"/>
    <path d="M48.763,5.823 Q48.462,5.823 48.25,5.618 Q48.038,5.413 48.038,5.098 Q48.038,4.784 48.25,4.575 Q48.462,4.367 48.763,4.367 Q49.071,4.367 49.286,4.575 Q49.501,4.784 49.501,5.098 Q49.501,5.399 49.286,5.611 Q49.071,5.823 48.763,5.823 z M49.31,14.6 L48.189,14.6 L48.189,7.6 L49.31,7.6 z" fill="#FFFFFF"/>
    <path d="M56.679,14.583 L55.558,14.583 L55.558,13.393 L55.531,13.393 Q54.751,14.747 53.124,14.747 Q51.805,14.747 51.016,13.807 Q50.226,12.867 50.226,11.247 Q50.226,9.511 51.101,8.465 Q51.976,7.419 53.432,7.419 Q54.874,7.419 55.531,8.554 L55.558,8.554 L55.558,4.22 L56.679,4.22 z M55.558,11.418 L55.558,10.386 Q55.558,9.538 54.997,8.95 Q54.437,8.362 53.576,8.362 Q52.55,8.362 51.962,9.114 Q51.374,9.866 51.374,11.192 Q51.374,12.402 51.938,13.103 Q52.502,13.804 53.453,13.804 Q54.389,13.804 54.974,13.127 Q55.558,12.45 55.558,11.418 z" fill="#FFFFFF"/>
    <path d="M72.398,15 L70.99,15 L65.945,7.187 Q65.754,6.893 65.631,6.571 L65.59,6.571 Q65.645,6.886 65.645,7.918 L65.645,15 L64.496,15 L64.496,5.197 L65.986,5.197 L70.895,12.888 Q71.202,13.366 71.291,13.544 L71.318,13.544 Q71.25,13.12 71.25,12.102 L71.25,5.197 L72.398,5.197 z" fill="#FFFFFF"/>
    <path d="M79.444,11.78 L74.502,11.78 Q74.529,12.949 75.131,13.585 Q75.732,14.221 76.785,14.221 Q77.968,14.221 78.959,13.441 L78.959,14.494 Q78.036,15.164 76.519,15.164 Q75.035,15.164 74.188,14.21 Q73.34,13.257 73.34,11.527 Q73.34,9.894 74.266,8.865 Q75.192,7.836 76.566,7.836 Q77.94,7.836 78.692,8.725 Q79.444,9.613 79.444,11.192 z M78.296,10.83 Q78.289,9.859 77.828,9.319 Q77.366,8.779 76.546,8.779 Q75.753,8.779 75.199,9.347 Q74.646,9.914 74.516,10.83 z" fill="#FFFFFF"/>
    <path d="M83.387,14.932 Q82.99,15.15 82.341,15.15 Q80.502,15.15 80.502,13.1 L80.502,8.957 L79.299,8.957 L79.299,8 L80.502,8 L80.502,6.291 L81.623,5.929 L81.623,8 L83.387,8 L83.387,8.957 L81.623,8.957 L81.623,12.901 Q81.623,13.605 81.862,13.906 Q82.102,14.207 82.655,14.207 Q83.079,14.207 83.387,13.975 z" fill="#FFFFFF"/>
    <path d="M92.702,8 L90.604,15 L89.441,15 L87.999,9.989 Q87.917,9.702 87.89,9.34 L87.862,9.34 Q87.842,9.586 87.719,9.976 L86.153,15 L85.032,15 L82.913,8 L84.089,8 L85.538,13.264 Q85.606,13.503 85.634,13.893 L85.688,13.893 Q85.709,13.592 85.812,13.25 L87.425,8 L88.45,8 L89.899,13.277 Q89.968,13.53 90.002,13.906 L90.057,13.906 Q90.07,13.64 90.173,13.277 L91.595,8 z" fill="#FFFFFF"/>
    <path d="M95.886,15.164 Q94.334,15.164 93.408,14.183 Q92.481,13.202 92.481,11.582 Q92.481,9.818 93.445,8.827 Q94.409,7.836 96.05,7.836 Q97.615,7.836 98.494,8.8 Q99.372,9.764 99.372,11.473 Q99.372,13.147 98.425,14.156 Q97.479,15.164 95.886,15.164 z M95.968,8.779 Q94.888,8.779 94.259,9.514 Q93.63,10.249 93.63,11.541 Q93.63,12.785 94.266,13.503 Q94.901,14.221 95.968,14.221 Q97.055,14.221 97.639,13.517 Q98.224,12.812 98.224,11.514 Q98.224,10.201 97.639,9.49 Q97.055,8.779 95.968,8.779 z" fill="#FFFFFF"/>
    <path d="M103.813,9.135 Q103.52,8.909 102.966,8.909 Q102.248,8.909 101.766,9.586 Q101.284,10.263 101.284,11.432 L101.284,15 L100.163,15 L100.163,8 L101.284,8 L101.284,9.442 L101.312,9.442 Q101.551,8.704 102.043,8.291 Q102.535,7.877 103.144,7.877 Q103.581,7.877 103.813,7.973 z" fill="#FFFFFF"/>
    <path d="M109.841,15 L108.269,15 L105.179,11.637 L105.151,11.637 L105.151,15 L104.03,15 L104.03,4.637 L105.151,4.637 L105.151,11.206 L105.179,11.206 L108.118,8 L109.588,8 L106.341,11.377 z" fill="#FFFFFF"/>
    <path d="M109.565,14.747 L109.565,13.544 Q110.481,14.221 111.582,14.221 Q113.059,14.221 113.059,13.236 Q113.059,12.956 112.932,12.761 Q112.806,12.566 112.59,12.416 Q112.375,12.266 112.084,12.146 Q111.794,12.026 111.459,11.896 Q110.994,11.712 110.642,11.524 Q110.29,11.336 110.054,11.1 Q109.818,10.864 109.699,10.563 Q109.579,10.263 109.579,9.859 Q109.579,9.367 109.805,8.988 Q110.03,8.608 110.406,8.352 Q110.782,8.096 111.264,7.966 Q111.746,7.836 112.259,7.836 Q113.168,7.836 113.886,8.15 L113.886,9.285 Q113.113,8.779 112.108,8.779 Q111.794,8.779 111.541,8.851 Q111.288,8.923 111.107,9.053 Q110.926,9.183 110.827,9.364 Q110.728,9.545 110.728,9.764 Q110.728,10.037 110.827,10.222 Q110.926,10.406 111.117,10.55 Q111.309,10.693 111.582,10.81 Q111.855,10.926 112.204,11.062 Q112.669,11.24 113.038,11.428 Q113.407,11.616 113.667,11.852 Q113.927,12.088 114.067,12.396 Q114.207,12.703 114.207,13.127 Q114.207,13.646 113.978,14.029 Q113.749,14.412 113.366,14.665 Q112.983,14.918 112.484,15.041 Q111.985,15.164 111.438,15.164 Q110.358,15.164 109.565,14.747 z" fill="#FFFFFF"/>
  </g>
</svg>
